<svg width="900" height="452" viewBox="0 0 900 452" fill="none" xmlns="http://www.w3.org/2000/svg">
<path d="M882.387 138.373C865.215 97.9029 836.687 63.5605 800.722 39.2517C782.826 27.1703 763.024 17.5603 741.772 11.0072C720.663 4.31166 698.105 0.815377 674.821 0.815377C644.97 0.815377 616.296 6.64428 590.099 17.2773C587.909 18.1421 585.877 19.0105 583.845 20.0336C560.262 30.3677 538.713 44.9242 520.233 62.2509C514.264 67.9234 508.591 73.8929 502.905 80.5884C492.87 92.088 482.535 105.337 472.486 118.726C470.452 121.482 468.264 124.397 466.232 127.17C460.702 134.733 407.851 212.175 398.54 226.005C393.878 232.984 388.348 240.845 382.377 249.432C381.069 251.323 379.621 253.369 378.171 255.401C368.263 269.518 357.203 284.372 347.012 297.478C341.923 304.017 336.82 310.129 332.455 315.232C327.95 320.463 323.87 324.685 320.955 327.456C308.447 339.24 293.734 348.85 277.587 355.403C261.425 361.956 243.812 365.595 225.176 365.595C212.368 365.595 200 363.844 188.36 360.647C182.391 359.042 176.562 357.008 170.889 354.535C145.844 344.044 124.45 326.29 109.454 304.015C101.892 292.814 95.9203 280.589 91.8422 267.483C87.917 254.376 85.5879 240.56 85.5879 226.003C85.5879 206.643 89.5254 188.448 96.5039 171.701C107.137 146.67 124.891 125.42 147.166 110.28C158.367 102.703 170.59 96.8886 183.697 92.8087C196.789 88.7289 210.619 86.4138 225.176 86.4138C243.812 86.5544 261.425 90.0525 277.587 96.5915C293.736 103.285 308.447 112.753 320.955 124.537C323.87 127.309 327.95 131.672 332.455 136.775C340.316 145.944 349.627 157.728 358.952 170.11C362.591 175.057 366.23 180.003 369.868 185.092C383.841 164.723 408.291 128.914 421.098 110.42C418.924 107.506 416.735 104.607 414.559 101.693C408.73 94.2572 402.903 87.1363 397.09 80.5832C391.261 73.8876 385.731 67.9181 379.761 62.2456C359.677 43.3105 335.953 27.8892 309.895 17.2703C283.697 6.63725 255.013 0.80835 225.176 0.80835C194.173 0.80835 164.479 7.0767 137.413 18.5763C96.9451 35.606 62.7293 64.1353 38.4205 100.084C26.3391 117.996 16.7432 137.925 10.0477 159.034C3.49629 180.292 0 202.709 0 226.007C0 257.01 6.2543 286.704 17.6133 313.627C34.7836 354.239 63.3129 388.455 99.1213 412.762C117.174 424.845 136.976 434.44 158.226 441.135C179.334 447.688 201.894 451.185 225.178 451.185C255.015 451.185 283.7 445.356 309.897 434.738C335.955 424.105 359.536 408.681 379.622 389.904L379.763 389.761C385.734 384.231 391.264 378.105 397.092 371.41C407.127 359.91 417.461 346.676 427.511 333.284C429.544 330.512 431.733 327.74 433.765 324.982C439.295 317.264 511.648 211.15 517.605 202.565C518.927 200.673 520.378 198.641 521.826 196.595C531.735 182.621 542.793 167.626 552.985 154.534C558.074 147.981 563.177 141.868 567.541 136.779C572.048 131.533 576.128 127.311 579.041 124.541C591.55 112.756 606.263 103.289 622.412 96.5951C626.349 95.0025 630.272 93.6964 634.351 92.3728C647.158 88.5935 660.69 86.5597 674.821 86.4173C694.18 86.558 712.519 90.3408 729.105 97.4757C754.138 107.952 775.547 125.706 790.529 147.981C798.105 159.196 804.074 171.422 808.14 184.512C812.22 197.618 814.409 211.449 814.409 226.005C814.409 245.366 810.471 263.703 803.493 280.292C792.86 305.323 775.106 326.731 752.831 341.713C741.63 349.289 729.406 355.261 716.3 359.184C703.35 363.264 689.377 365.597 674.821 365.597C656.184 365.597 638.571 361.958 622.41 355.405C606.261 348.852 591.548 339.242 579.039 327.457C576.125 324.685 572.045 320.322 567.54 315.234C559.679 306.207 550.355 294.266 541.042 281.9C537.263 276.952 533.623 271.849 529.984 266.76C528.819 268.507 527.653 270.258 526.345 272.148C502.323 307.373 487.183 329.646 478.895 341.715C481.069 344.629 483.26 347.401 485.434 350.316C491.263 357.736 497.09 364.872 502.903 371.41C508.588 378.103 514.262 384.231 520.232 389.761C540.316 408.681 564.042 424.105 590.098 434.738C616.296 445.356 644.968 451.185 674.819 451.185C705.82 451.185 735.516 444.93 762.439 433.573C803.05 416.401 837.251 387.872 861.572 351.909C873.642 334.012 883.406 314.211 889.945 292.959C896.502 271.849 900 249.291 900 226.007C900 195.004 893.746 165.31 882.387 138.373Z" fill="white"/>
</svg>
